<svg version="1.1" baseProfile="full" width="1000" height="1000" xmlns="http://www.w3.org/2000/svg">
  <rect y="0%" x="0%" width="12.5%" height="12.5%" fill="#664F92" />
  <rect y="0%" x="12.5%" width="12.5%" height="12.5%" fill="#117CB0" />
  <rect y="0%" x="25%" width="12.5%" height="12.5%" fill="#44619E" />
  <rect y="0%" x="37.5%" width="12.5%" height="12.5%" fill="#2273AA" />
  <rect y="0%" x="50%" width="12.5%" height="12.5%" fill="#883E86" />
  <rect y="0%" x="62.5%" width="12.5%" height="12.5%" fill="#AA2C7A" />
  <rect y="0%" x="75%" width="12.5%" height="12.5%" fill="#555898" />
  <rect y="0%" x="87.5%" width="12.5%" height="12.5%" fill="#44619E" />
  <rect y="12.5%" x="0%" width="12.5%" height="12.5%" fill="#336AA4" />
  <rect y="12.5%" x="12.5%" width="12.5%" height="12.5%" fill="#883E86" />
  <rect y="12.5%" x="25%" width="12.5%" height="12.5%" fill="#CC1A6E" />
  <rect y="12.5%" x="37.5%" width="12.5%" height="12.5%" fill="#AA2C7A" />
  <rect y="12.5%" x="50%" width="12.5%" height="12.5%" fill="#664F92" />
  <rect y="12.5%" x="62.5%" width="12.5%" height="12.5%" fill="#336AA4" />
  <rect y="12.5%" x="75%" width="12.5%" height="12.5%" fill="#FF005D" />
  <rect y="12.5%" x="87.5%" width="12.5%" height="12.5%" fill="#44619E" />
  <rect y="25%" x="0%" width="12.5%" height="12.5%" fill="#664F92" />
  <rect y="25%" x="12.5%" width="12.5%" height="12.5%" fill="#0085B6" />
  <rect y="25%" x="25%" width="12.5%" height="12.5%" fill="#BB2374" />
  <rect y="25%" x="37.5%" width="12.5%" height="12.5%" fill="#FF005D" />
  <rect y="25%" x="50%" width="12.5%" height="12.5%" fill="#883E86" />
  <rect y="25%" x="62.5%" width="12.5%" height="12.5%" fill="#0085B6" />
  <rect y="25%" x="75%" width="12.5%" height="12.5%" fill="#0085B6" />
  <rect y="25%" x="87.5%" width="12.5%" height="12.5%" fill="#336AA4" />
  <rect y="37.5%" x="0%" width="12.5%" height="12.5%" fill="#44619E" />
  <rect y="37.5%" x="12.5%" width="12.5%" height="12.5%" fill="#0085B6" />
  <rect y="37.5%" x="25%" width="12.5%" height="12.5%" fill="#883E86" />
  <rect y="37.5%" x="37.5%" width="12.5%" height="12.5%" fill="#555898" />
  <rect y="37.5%" x="50%" width="12.5%" height="12.5%" fill="#AA2C7A" />
  <rect y="37.5%" x="62.5%" width="12.5%" height="12.5%" fill="#77468C" />
  <rect y="37.5%" x="75%" width="12.5%" height="12.5%" fill="#44619E" />
  <rect y="37.5%" x="87.5%" width="12.5%" height="12.5%" fill="#664F92" />
  <rect y="50%" x="0%" width="12.5%" height="12.5%" fill="#883E86" />
  <rect y="50%" x="12.5%" width="12.5%" height="12.5%" fill="#883E86" />
  <rect y="50%" x="25%" width="12.5%" height="12.5%" fill="#AA2C7A" />
  <rect y="50%" x="37.5%" width="12.5%" height="12.5%" fill="#993580" />
  <rect y="50%" x="50%" width="12.5%" height="12.5%" fill="#DD1168" />
  <rect y="50%" x="62.5%" width="12.5%" height="12.5%" fill="#0085B6" />
  <rect y="50%" x="75%" width="12.5%" height="12.5%" fill="#77468C" />
  <rect y="50%" x="87.5%" width="12.5%" height="12.5%" fill="#77468C" />
  <rect y="62.5%" x="0%" width="12.5%" height="12.5%" fill="#DD1168" />
  <rect y="62.5%" x="12.5%" width="12.5%" height="12.5%" fill="#555898" />
  <rect y="62.5%" x="25%" width="12.5%" height="12.5%" fill="#77468C" />
  <rect y="62.5%" x="37.5%" width="12.5%" height="12.5%" fill="#555898" />
  <rect y="62.5%" x="50%" width="12.5%" height="12.5%" fill="#117CB0" />
  <rect y="62.5%" x="62.5%" width="12.5%" height="12.5%" fill="#883E86" />
  <rect y="62.5%" x="75%" width="12.5%" height="12.5%" fill="#DD1168" />
  <rect y="62.5%" x="87.5%" width="12.5%" height="12.5%" fill="#117CB0" />
  <rect y="75%" x="0%" width="12.5%" height="12.5%" fill="#336AA4" />
  <rect y="75%" x="12.5%" width="12.5%" height="12.5%" fill="#664F92" />
  <rect y="75%" x="25%" width="12.5%" height="12.5%" fill="#993580" />
  <rect y="75%" x="37.5%" width="12.5%" height="12.5%" fill="#555898" />
  <rect y="75%" x="50%" width="12.5%" height="12.5%" fill="#117CB0" />
  <rect y="75%" x="62.5%" width="12.5%" height="12.5%" fill="#883E86" />
  <rect y="75%" x="75%" width="12.5%" height="12.5%" fill="#993580" />
  <rect y="75%" x="87.5%" width="12.5%" height="12.5%" fill="#336AA4" />
  <rect y="87.5%" x="0%" width="12.5%" height="12.5%" fill="#FF005D" />
  <rect y="87.5%" x="12.5%" width="12.5%" height="12.5%" fill="#EE0862" />
  <rect y="87.5%" x="25%" width="12.5%" height="12.5%" fill="#117CB0" />
  <rect y="87.5%" x="37.5%" width="12.5%" height="12.5%" fill="#883E86" />
  <rect y="87.5%" x="50%" width="12.5%" height="12.5%" fill="#883E86" />
  <rect y="87.5%" x="62.5%" width="12.5%" height="12.5%" fill="#336AA4" />
  <rect y="87.5%" x="75%" width="12.5%" height="12.5%" fill="#DD1168" />
  <rect y="87.5%" x="87.5%" width="12.5%" height="12.5%" fill="#FF005D" />
</svg>